<svg width="53" height="64" viewBox="0 0 53 64" fill="none" xmlns="http://www.w3.org/2000/svg">
<g clip-path="url(#clip0)">
<path d="M0 58C0 61.3125 2.54012 64 5.67097 64H47.2581C50.3889 64 52.9291 61.3125 52.9291 58V24H0V58ZM37.8065 33.5C37.8065 32.675 38.4445 32 39.2242 32H43.95C44.7298 32 45.3678 32.675 45.3678 33.5V38.5C45.3678 39.325 44.7298 40 43.95 40H39.2242C38.4445 40 37.8065 39.325 37.8065 38.5V33.5ZM37.8065 49.5C37.8065 48.675 38.4445 48 39.2242 48H43.95C44.7298 48 45.3678 48.675 45.3678 49.5V54.5C45.3678 55.325 44.7298 56 43.95 56H39.2242C38.4445 56 37.8065 55.325 37.8065 54.5V49.5ZM22.6839 33.5C22.6839 32.675 23.3219 32 24.1016 32H28.8274C29.6072 32 30.2452 32.675 30.2452 33.5V38.5C30.2452 39.325 29.6072 40 28.8274 40H24.1016C23.3219 40 22.6839 39.325 22.6839 38.5V33.5ZM22.6839 49.5C22.6839 48.675 23.3219 48 24.1016 48H28.8274C29.6072 48 30.2452 48.675 30.2452 49.5V54.5C30.2452 55.325 29.6072 56 28.8274 56H24.1016C23.3219 56 22.6839 55.325 22.6839 54.5V49.5ZM7.56129 33.5C7.56129 32.675 8.19928 32 8.97904 32H13.7048C14.4846 32 15.1226 32.675 15.1226 33.5V38.5C15.1226 39.325 14.4846 40 13.7048 40H8.97904C8.19928 40 7.56129 39.325 7.56129 38.5V33.5ZM7.56129 49.5C7.56129 48.675 8.19928 48 8.97904 48H13.7048C14.4846 48 15.1226 48.675 15.1226 49.5V54.5C15.1226 55.325 14.4846 56 13.7048 56H8.97904C8.19928 56 7.56129 55.325 7.56129 54.5V49.5ZM47.2581 8H41.5871V2C41.5871 0.9 40.7365 0 39.6968 0H35.9161C34.8765 0 34.0258 0.9 34.0258 2V8H18.9032V2C18.9032 0.9 18.0526 0 17.0129 0H13.2323C12.1926 0 11.3419 0.9 11.3419 2V8H5.67097C2.54012 8 0 10.6875 0 14V20H52.9291V14C52.9291 10.6875 50.3889 8 47.2581 8Z" fill="#BD03FF"/>
</g>
<defs>
<clipPath id="clip0">
<rect width="52.9291" height="64" fill="white"/>
</clipPath>
</defs>
</svg>
