<svg width="62" height="59" viewBox="0 0 62 59" fill="none" xmlns="http://www.w3.org/2000/svg">
<path d="M31.2019 23.3935C37.7724 23.3935 43.1178 18.2619 43.1178 11.9542C43.1178 5.64645 37.7724 0.514648 31.2019 0.514648C24.6313 0.514648 19.2859 5.64645 19.2859 11.9542C19.2859 18.2619 24.6313 23.3935 31.2019 23.3935ZM25.4377 10.7318C26.1412 10.0569 27.281 10.0569 27.9844 10.7318L29.7049 12.3837L34.4193 7.85766C35.1228 7.18276 36.2626 7.18276 36.966 7.85766C37.6692 8.53277 37.6692 9.62735 36.966 10.3024L30.9783 16.0507C30.6266 16.388 30.1659 16.557 29.7049 16.557C29.244 16.557 28.7832 16.3882 28.4316 16.0507L25.4377 13.1766C24.7345 12.5015 24.7345 11.4067 25.4377 10.7318Z" fill="#BD03FF"/>
<path d="M7.74677 17.2252C11.6115 17.2252 14.7557 14.2067 14.7557 10.4966C14.7557 6.78653 11.6115 3.76807 7.74677 3.76807C3.88207 3.76807 0.738037 6.78653 0.738037 10.4966C0.738037 14.2067 3.88207 17.2252 7.74677 17.2252Z" fill="#BD03FF"/>
<path d="M1.42883 26.8583V40.832C1.42883 44.0415 4.13899 46.6432 7.48221 46.6432H15.3714V56.9641C15.3714 57.7503 16.0353 58.3878 16.8544 58.3878H23.8451C24.664 58.3878 25.3281 57.7505 25.3281 56.9641V42.0766C25.3281 39.3673 23.0403 37.1713 20.2184 37.1713H14.0651V26.8583C14.0651 23.5085 11.2363 20.793 7.74705 20.793C4.25756 20.7928 1.42883 23.5083 1.42883 26.8583Z" fill="#BD03FF"/>
<path d="M54.6574 17.2252C58.5221 17.2252 61.6661 14.2067 61.6661 10.4966C61.6661 6.78653 58.5221 3.76807 54.6574 3.76807C50.7927 3.76807 47.6484 6.78653 47.6484 10.4966C47.6484 14.2067 50.7927 17.2252 54.6574 17.2252Z" fill="#BD03FF"/>
<path d="M48.3386 26.8583V37.1713H42.1855C39.3633 37.1713 37.0756 39.3675 37.0756 42.0766V56.9641C37.0756 57.7503 37.7394 58.3878 38.5585 58.3878H45.5492C46.3682 58.3878 47.0322 57.7505 47.0322 56.9641V46.6432H54.9214C58.2646 46.6432 60.9748 44.0415 60.9748 40.832V26.8583C60.9748 23.5085 58.1461 20.793 54.6568 20.793C51.1673 20.7928 48.3386 23.5083 48.3386 26.8583Z" fill="#BD03FF"/>
<path d="M41.6878 30.4102C42.6824 30.4102 43.4884 29.6362 43.4884 28.6816C43.4884 27.7269 42.6822 26.9531 41.6878 26.9531H20.7156C19.721 26.9531 18.915 27.7271 18.915 28.6816C18.915 29.6364 19.7213 30.4102 20.7156 30.4102H29.401V57.2715C29.401 58.2262 30.2072 59 31.2015 59C32.1958 59 33.0021 58.226 33.0021 57.2715V30.4102H41.6878Z" fill="#BD03FF"/>
</svg>
