<svg width="49" height="59" viewBox="0 0 49 59" fill="none" xmlns="http://www.w3.org/2000/svg">
<path d="M48.093 47.7908C42.2832 44.9849 42.0622 32.941 42.0579 32.6371V24.5571C42.0579 16.7806 37.6144 10.0935 31.3 7.24627C31.2865 3.24812 28.2415 0 24.5002 0C20.7587 0 17.7139 3.24831 17.7002 7.24608C11.3862 10.0933 6.94259 16.7804 6.94259 24.5569V32.6369C6.93848 32.9408 6.71729 44.9847 0.907312 47.7906C0.245461 48.1103 -0.118294 48.8808 0.0347292 49.6401C0.187574 50.3995 0.81548 50.9418 1.54183 50.9418H16.2707C16.5726 52.7182 17.358 54.3707 18.5592 55.7092C20.1547 57.4869 22.2646 58.4659 24.4999 58.4659C26.7354 58.4659 28.8453 57.4869 30.4406 55.7092C31.642 54.3706 32.4274 52.718 32.7292 50.9418H47.458C48.1844 50.9418 48.8122 50.3996 48.9652 49.6401C49.1184 48.8808 48.7548 48.1104 48.093 47.7908ZM40.4397 42.0211C41.0505 44.0013 41.9153 45.9899 43.1416 47.6447H5.85856C7.08471 45.9901 7.94952 44.0015 8.56028 42.0211H40.4397ZM24.5002 3.29732C26.1926 3.29732 27.6235 4.51346 28.0712 6.17115C26.9177 5.91531 25.7234 5.78042 24.5002 5.78042C23.277 5.78042 22.0826 5.91521 20.9292 6.17115C21.377 4.51355 22.8079 3.29732 24.5002 3.29732ZM10.0258 32.6471V24.5569C10.0258 16.0216 16.5189 9.07774 24.5002 9.07774C32.4814 9.07774 38.9745 16.0216 38.9745 24.5569V32.6605C38.9766 32.9085 39.0127 35.515 39.6269 38.7235H9.3731C9.98769 35.5119 10.024 32.9009 10.0258 32.6471ZM24.5002 55.1689C22.1471 55.1689 20.0935 53.3545 19.4343 50.9419H29.5659C28.9067 53.3545 26.8534 55.1689 24.5002 55.1689Z" fill="#BD03FF"/>
<path d="M24.5002 11.3909C17.8674 11.3909 12.4712 17.1615 12.4712 24.2548C12.4712 25.1653 13.1615 25.9035 14.0129 25.9035C14.8643 25.9035 15.5545 25.1653 15.5545 24.2548C15.5545 18.9797 19.5675 14.6882 24.5003 14.6882C25.3517 14.6882 26.042 13.95 26.042 13.0395C26.0419 12.1289 25.3516 11.3909 24.5002 11.3909Z" fill="#BD03FF"/>
</svg>
