<svg width="73" height="62" viewBox="0 0 73 62" fill="none" xmlns="http://www.w3.org/2000/svg">
<g clip-path="url(#clip0)">
<path d="M3.64801 27.125H7.29601V50.375H3.64801C3.16878 50.3756 2.69415 50.2758 2.25129 50.0813C1.80844 49.8868 1.40606 49.6013 1.0672 49.2414C0.728332 48.8815 0.459644 48.454 0.276519 47.9836C0.0933932 47.5132 -0.00057258 47.009 2.62489e-06 46.5V31C-0.00057258 30.491 0.0933932 29.9868 0.276519 29.5164C0.459644 29.046 0.728332 28.6185 1.0672 28.2586C1.40606 27.8986 1.80844 27.6132 2.25129 27.4187C2.69415 27.2242 3.16878 27.1244 3.64801 27.125ZM62.016 21.3125V54.25C62.0141 56.3048 61.2448 58.2749 59.877 59.7278C58.5091 61.1808 56.6545 61.998 54.72 62H18.24C16.3056 61.998 14.4509 61.1808 13.0831 59.7278C11.7152 58.2749 10.9459 56.3048 10.944 54.25V21.3125C10.9436 20.0402 11.1793 18.7803 11.6374 17.6048C12.0956 16.4292 12.7674 15.3611 13.6143 14.4615C14.4613 13.5618 15.4668 12.8483 16.5735 12.3616C17.6801 11.8749 18.8663 11.6246 20.064 11.625H32.832V3.875C32.832 2.84729 33.2164 1.86166 33.9005 1.13496C34.5846 0.408258 35.5125 0 36.48 0C37.4475 0 38.3754 0.408258 39.0596 1.13496C39.7437 1.86166 40.128 2.84729 40.128 3.875V11.625H52.896C54.0938 11.6246 55.2799 11.8749 56.3866 12.3616C57.4932 12.8483 58.4988 13.5618 59.3457 14.4615C60.1927 15.3611 60.8644 16.4292 61.3226 17.6048C61.7808 18.7803 62.0164 20.0402 62.016 21.3125ZM30.096 31C30.096 30.042 29.8286 29.1055 29.3275 28.309C28.8265 27.5124 28.1143 26.8916 27.2811 26.525C26.4478 26.1583 25.531 26.0624 24.6464 26.2493C23.7619 26.4362 22.9493 26.8975 22.3116 27.575C21.6739 28.2524 21.2396 29.1154 21.0636 30.055C20.8877 30.9946 20.978 31.9685 21.3231 32.8536C21.6683 33.7387 22.2527 34.4952 23.0026 35.0274C23.7525 35.5597 24.6341 35.8438 25.536 35.8438C26.1349 35.8438 26.7278 35.7185 27.2811 35.4751C27.8344 35.2317 28.3371 34.875 28.7605 34.4252C29.184 33.9754 29.5199 33.4414 29.749 32.8537C29.9782 32.266 30.0961 31.6361 30.096 31ZM29.184 46.5H21.888V50.375H29.184V46.5ZM40.128 46.5H32.832V50.375H40.128V46.5ZM51.984 31C51.984 30.042 51.7166 29.1055 51.2155 28.309C50.7145 27.5124 50.0023 26.8916 49.1691 26.525C48.3358 26.1583 47.419 26.0624 46.5344 26.2493C45.6499 26.4362 44.8374 26.8975 44.1996 27.575C43.5619 28.2524 43.1276 29.1154 42.9517 30.055C42.7757 30.9946 42.866 31.9685 43.2111 32.8536C43.5563 33.7387 44.1407 34.4952 44.8906 35.0274C45.6405 35.5597 46.5222 35.8438 47.424 35.8438C48.0229 35.8438 48.6159 35.7185 49.1691 35.4751C49.7224 35.2317 50.2251 34.875 50.6485 34.4252C51.072 33.9754 51.4079 33.4414 51.637 32.8537C51.8662 32.266 51.9841 31.6361 51.984 31ZM51.072 46.5H43.776V50.375H51.072V46.5ZM72.9601 31V46.5C72.9606 47.009 72.8667 47.5132 72.6835 47.9836C72.5004 48.454 72.2317 48.8815 71.8929 49.2414C71.554 49.6013 71.1516 49.8868 70.7088 50.0813C70.2659 50.2758 69.7913 50.3756 69.312 50.375H65.664V27.125H69.312C69.7913 27.1244 70.2659 27.2242 70.7088 27.4187C71.1516 27.6132 71.554 27.8986 71.8929 28.2586C72.2317 28.6185 72.5004 29.046 72.6835 29.5164C72.8667 29.9868 72.9606 30.491 72.9601 31Z" fill="#BD03FF"/>
</g>
<defs>
<clipPath id="clip0">
<rect width="72.9601" height="62" fill="white"/>
</clipPath>
</defs>
</svg>
