<svg width="45" height="62" viewBox="0 0 45 62" fill="none" xmlns="http://www.w3.org/2000/svg">
<g clip-path="url(#clip0)">
<path d="M43.3499 12.7148L32.0927 0.847656C31.5753 0.302734 30.8739 0 30.138 0H29.4365V15.5H44.1548V14.7613C44.1548 13.9984 43.8674 13.2598 43.3499 12.7148ZM14.7643 40.6875C12.706 40.6875 11.0387 42.1527 11.0387 43.957C11.0387 45.7734 12.7175 47.2266 14.7758 47.2266C16.834 47.2266 18.5013 45.7613 18.5013 43.957C18.5013 42.1527 16.8225 40.6875 14.7643 40.6875ZM25.757 16.4688V0H18.4438V3.875H14.7643V0H2.75968C1.23036 0 0 1.2957 0 2.90625V59.0938C0 60.7043 1.23036 62 2.75968 62H41.3951C42.9245 62 44.1548 60.7043 44.1548 59.0938V19.375H28.5167C26.9988 19.375 25.757 18.0672 25.757 16.4688ZM11.0272 3.875H14.7068V7.75H11.0272V3.875ZM14.7413 50.375C10.9237 50.375 8.07205 46.6938 8.83096 42.7582L11.0847 31V27.125H14.7643V23.25H11.0847V19.375H14.7643V15.5H11.0847V11.625H14.7643V7.75H18.4438V11.625H14.7643V15.5H18.4438V19.375H14.7643V23.25H18.4438V27.125H14.7643V31H17.3055C17.9609 31 18.5358 31.4965 18.6623 32.1746L20.6516 42.7945C21.3875 46.718 18.5358 50.375 14.7413 50.375V50.375Z" fill="#BD03FF"/>
</g>
<defs>
<clipPath id="clip0">
<rect width="44.1548" height="62" fill="white"/>
</clipPath>
</defs>
</svg>
